<svg width="14.000000" height="14.000000" viewBox="0 0 14 14" fill="none" xmlns="http://www.w3.org/2000/svg" xmlns:xlink="http://www.w3.org/1999/xlink">
	<desc>
			Created with Pixso.
	</desc>
	<defs>
		<clipPath id="clip5_461">
			<rect id="star" rx="0.000000" width="13.000000" height="13.000000" transform="translate(0.500000 0.500000)" fill="white" fill-opacity="0"/>
		</clipPath>
	</defs>
	<g clip-path="url(#clip5_461)">
		<path id="Vector" d="M13.69 6.37C13.97 6.1 14.06 5.7 13.95 5.34C13.83 4.97 13.52 4.71 13.13 4.65L9.74 4.16C9.6 4.14 9.48 4.05 9.41 3.92L7.9 0.85C7.73 0.5 7.38 0.29 7 0.29C6.61 0.29 6.26 0.5 6.09 0.85L4.58 3.92C4.51 4.05 4.39 4.14 4.25 4.16L0.86 4.65C0.47 4.71 0.16 4.97 0.04 5.34C-0.07 5.7 0.02 6.1 0.3 6.37L2.75 8.76C2.86 8.86 2.9 9.01 2.88 9.15L2.3 12.53C2.25 12.82 2.33 13.11 2.52 13.34C2.82 13.7 3.34 13.8 3.76 13.58L6.79 11.99C6.92 11.92 7.07 11.92 7.2 11.99L10.23 13.58C10.38 13.66 10.54 13.7 10.7 13.7C11 13.7 11.28 13.57 11.47 13.34C11.66 13.11 11.74 12.82 11.69 12.53L11.11 9.15C11.09 9.01 11.13 8.86 11.24 8.76L13.69 6.37Z" fill="#E6E6E6" fill-opacity="1.000000" fill-rule="nonzero"/>
	</g>
</svg>
