<svg width="14.000183" height="13.412964" viewBox="0 0 14.0002 13.413" fill="none" xmlns="http://www.w3.org/2000/svg" xmlns:xlink="http://www.w3.org/1999/xlink">
	<desc>
			Created with Pixso.
	</desc>
	<defs/>
	<path id="Vector" d="M13.69 6.07C13.97 5.8 14.06 5.41 13.95 5.04C13.83 4.68 13.52 4.42 13.13 4.36L9.74 3.87C9.6 3.85 9.48 3.76 9.41 3.63L7.9 0.55C7.73 0.21 7.38 0 7 0C6.61 0 6.27 0.21 6.1 0.55L4.58 3.63C4.51 3.76 4.39 3.85 4.25 3.87L0.86 4.36C0.47 4.42 0.16 4.68 0.04 5.04C-0.07 5.41 0.02 5.81 0.3 6.07L2.75 8.46C2.86 8.57 2.9 8.71 2.88 8.86L2.3 12.23C2.25 12.53 2.33 12.82 2.52 13.05C2.82 13.4 3.34 13.51 3.76 13.29L6.79 11.7C6.92 11.63 7.08 11.63 7.2 11.7L10.23 13.29C10.38 13.37 10.54 13.41 10.7 13.41C11 13.41 11.28 13.28 11.47 13.05C11.66 12.82 11.74 12.53 11.69 12.23L11.11 8.86C11.09 8.71 11.13 8.57 11.24 8.46L13.69 6.07Z" fill="#E9CE93" fill-opacity="1.000000" fill-rule="nonzero"/>
</svg>
